<svg width="512" height="512" viewBox="0 0 512 512" fill="none" xmlns="http://www.w3.org/2000/svg">
  <rect width="512" height="512" rx="108" fill="#18181B"/>
  <path d="M256 96C229.5 96 208 117.5 208 144V272C208 298.5 229.5 320 256 320C282.5 320 304 298.5 304 272V144C304 117.5 282.5 96 256 96Z" fill="#FAFAFA"/>
  <path d="M352 240V272C352 325 309 368 256 368C203 368 160 325 160 272V240C160 231.2 152.8 224 144 224C135.2 224 128 231.2 128 240V272C128 337.4 178.1 391.4 240 399.2V432H192C183.2 432 176 439.2 176 448C176 456.8 183.2 464 192 464H320C328.8 464 336 456.8 336 448C336 439.2 328.8 432 320 432H272V399.2C333.9 391.4 384 337.4 384 272V240C384 231.2 376.8 224 368 224C359.2 224 352 231.2 352 240Z" fill="#FAFAFA"/>
  <circle cx="256" cy="208" r="24" fill="#18181B"/>
</svg>
