<svg width="22" height="22" viewBox="0 0 22 22" fill="none" xmlns="http://www.w3.org/2000/svg">
  <path d="M11 2C9.34 2 8 3.34 8 5V11C8 12.66 9.34 14 11 14C12.66 14 14 12.66 14 11V5C14 3.34 12.66 2 11 2Z" fill="black"/>
  <path d="M16 9V11C16 13.76 13.76 16 11 16C8.24 16 6 13.76 6 11V9C6 8.45 5.55 8 5 8C4.45 8 4 8.45 4 9V11C4 14.53 6.61 17.43 10 17.92V20H8C7.45 20 7 20.45 7 21C7 21.55 7.45 22 8 22H14C14.55 22 15 21.55 15 21C15 20.45 14.55 20 14 20H12V17.92C15.39 17.43 18 14.53 18 11V9C18 8.45 17.55 8 17 8C16.45 8 16 8.45 16 9Z" fill="black"/>
</svg>
